<?xml version="1.0" encoding="utf-8"?>
<svg fill="#ffffff" version="1.1" id="Capa_1" width="800px" height="800px" viewBox="0 0 479.499 479.499" xmlns="http://www.w3.org/2000/svg">
  <g>
    <path d="M 253.235 14.269 L 240.967 4.046 L 240.905 4.099 L 240.857 4.064 L 229.284 14.044 L 54.06 164.233 L 54.06 165.288 L 0 211.954 L 23.652 239.359 L 54.054 213.103 L 54.054 475.453 L 432.988 475.453 L 432.988 209.403 L 456.471 228.767 L 479.499 200.833 L 253.235 14.269 Z M 396.802 439.255 L 90.275 439.255 L 90.275 181.865 L 241.327 51.485 L 396.813 181.04 L 396.813 439.254 L 396.802 439.254 L 396.802 439.255 Z"/>
    <path class="st0" d="M 337.284 307.801 L 337.284 415.942 L 312.585 415.942 L 312.585 399.229 L 166.948 399.229 L 166.948 415.942 L 142.248 415.942 L 142.248 307.801 L 133.737 307.801 L 133.737 291.159 L 154.512 291.159 L 166.079 254.283 C 169.485 243.436 175.182 233.55 186.334 233.55 L 297.437 233.55 C 308.589 233.55 315.015 243.224 317.692 254.283 L 326.654 291.159 L 345.762 291.159 L 345.762 307.801 L 337.284 307.801 Z M 202.767 365.873 L 275.723 365.873 L 275.723 383.476 L 202.767 383.476 L 202.767 365.873 Z M 150.515 324.87 C 169.102 325.476 180.464 333.442 183.383 350.049 L 150.515 350.049 L 150.515 324.87 Z M 326.689 324.87 C 308.103 325.476 296.741 333.442 293.824 350.049 L 326.689 350.049 L 326.689 324.87 Z M 163.405 291.194 L 316.162 291.194 L 309.63 260.257 C 307.826 251.758 302.683 244.468 294.205 244.468 L 188.522 244.468 C 180.047 244.468 175.668 252.007 173.097 260.257 L 163.405 291.194 Z" style="clip-rule: evenodd; fill-rule: evenodd;"/>
  </g>
</svg>