<?xml version="1.0" encoding="iso-8859-1"?>
<!DOCTYPE svg PUBLIC "-//W3C//DTD SVG 1.1//EN" "http://www.w3.org/Graphics/SVG/1.1/DTD/svg11.dtd">
<svg fill="#ffffff" version="1.1" id="Capa_1" xmlns="http://www.w3.org/2000/svg" xmlns:xlink="http://www.w3.org/1999/xlink" 
	 width="800px" height="800px" viewBox="0 0 479.499 479.499"
	 xml:space="preserve">
<g>
	<path d="M178.872,232.624v32.643h-8.993c-4.885,0-8.831,3.947-8.831,8.818v117.37c0,4.876,3.945,8.825,8.831,8.825h139.763
		c4.876,0,8.818-3.949,8.818-8.825v-117.37c0-4.883-3.942-8.831-8.818-8.831h-8.99v-32.639c0-33.579-27.326-60.896-60.896-60.896
		C206.182,171.719,178.872,199.036,178.872,232.624z M250.144,353.194v32.64h-21.551v-33.521c-1.947-2.447-3.133-5.538-3.133-8.907
		c0-7.896,6.407-14.286,14.289-14.286c7.877,0,14.29,6.39,14.29,14.286C254.045,347.201,252.543,350.636,250.144,353.194z
		 M277.705,232.624v32.643h-75.9v-32.643c0-20.93,17.026-37.953,37.95-37.953C260.677,194.671,277.705,211.694,277.705,232.624z
		 M253.235,14.269L240.967,4.046l-0.062,0.053l-0.048-0.035l-11.573,9.98L54.06,164.233v1.055L0,211.954l23.652,27.405
		l30.402-26.256v262.35h378.934v-266.05l23.483,19.364l23.028-27.934L253.235,14.269z M396.802,439.255H90.275v-257.39
		l151.052-130.38l155.486,129.555v258.214H396.802z"/>
</g>
</svg>
